M48
;DRILL file {KiCad (5.0.0)} date 12/11/18 19:04:47
;FORMAT={-:-/ absolute / inch / decimal}
FMAT,2
INCH,TZ
T1C0.0157
T2C0.0197
T3C0.0280
T4C0.0300
T5C0.0315
%
G90
G05
M72
T1
X5.075Y-4.25
X7.625Y-3.85
T2
X7.4313Y-2.573
X7.4313Y-2.673
T3
X6.675Y-3.35
X6.675Y-3.45
X6.675Y-3.55
X6.675Y-3.65
X6.675Y-3.75
X6.675Y-3.85
X6.675Y-3.95
X6.675Y-4.05
X6.775Y-3.35
X6.775Y-3.45
X6.775Y-3.55
X6.775Y-3.65
X6.775Y-3.75
X6.775Y-3.85
X6.775Y-3.95
X6.775Y-4.05
T4
X8.6876Y-3.9187
X8.6876Y-4.1156
X8.6876Y-4.3124
X8.6876Y-4.5093
X8.6876Y-4.7061
X3.6719Y-1.9219
X3.8687Y-1.9219
X4.6561Y-1.9219
X4.853Y-1.9219
X4.0876Y-2.753
X4.0876Y-2.853
X5.9876Y-2.353
X5.9876Y-2.453
X5.9876Y-2.553
X5.9876Y-2.653
X5.9876Y-3.053
X5.9876Y-3.153
X5.9876Y-3.253
X5.9876Y-3.353
X5.9876Y-3.453
X5.9876Y-3.553
X5.9876Y-3.653
X5.9876Y-3.753
T5
X7.475Y-4.903
X7.775Y-4.303
X7.775Y-4.403
X7.775Y-4.503
X7.775Y-4.603
X7.775Y-4.703
X7.775Y-4.803
X7.775Y-4.903
X6.225Y-4.9
X6.525Y-4.3
X6.525Y-4.4
X6.525Y-4.5
X6.525Y-4.6
X6.525Y-4.7
X6.525Y-4.8
X6.525Y-4.9
X7.975Y-2.45
X7.975Y-2.85
X6.8781Y-2.375
X7.075Y-2.375
X5.075Y-2.353
X5.075Y-2.453
X5.075Y-2.553
X5.075Y-2.653
X5.075Y-2.753
X5.075Y-2.853
X5.075Y-2.953
X5.375Y-2.353
X5.375Y-2.453
X5.375Y-2.553
X5.375Y-2.653
X5.375Y-2.753
X5.375Y-2.853
X5.375Y-2.953
X6.8781Y-2.925
X7.075Y-2.925
T0
M30
