G04 #@! TF.GenerationSoftware,KiCad,Pcbnew,(5.0.0)*
G04 #@! TF.CreationDate,2018-12-11T19:12:22-02:00*
G04 #@! TF.ProjectId,trab,747261622E6B696361645F7063620000,rev?*
G04 #@! TF.SameCoordinates,Original*
G04 #@! TF.FileFunction,Copper,L2,Bot,Signal*
G04 #@! TF.FilePolarity,Positive*
%FSLAX46Y46*%
G04 Gerber Fmt 4.6, Leading zero omitted, Abs format (unit mm)*
G04 Created by KiCad (PCBNEW (5.0.0)) date 12/11/18 19:12:22*
%MOMM*%
%LPD*%
G01*
G04 APERTURE LIST*
G04 #@! TA.AperFunction,ComponentPad*
%ADD10C,1.600000*%
G04 #@! TD*
G04 #@! TA.AperFunction,ComponentPad*
%ADD11O,1.600000X1.600000*%
G04 #@! TD*
G04 #@! TA.AperFunction,ComponentPad*
%ADD12C,1.000000*%
G04 #@! TD*
G04 #@! TA.AperFunction,ComponentPad*
%ADD13C,1.524000*%
G04 #@! TD*
G04 #@! TA.AperFunction,ComponentPad*
%ADD14R,1.600000X1.600000*%
G04 #@! TD*
G04 #@! TA.AperFunction,ComponentPad*
%ADD15R,1.310000X1.310000*%
G04 #@! TD*
G04 #@! TA.AperFunction,ComponentPad*
%ADD16C,1.310000*%
G04 #@! TD*
G04 #@! TA.AperFunction,ViaPad*
%ADD17C,4.000000*%
G04 #@! TD*
G04 #@! TA.AperFunction,Conductor*
%ADD18C,0.250000*%
G04 #@! TD*
G04 #@! TA.AperFunction,Conductor*
%ADD19C,1.000000*%
G04 #@! TD*
G04 #@! TA.AperFunction,Conductor*
%ADD20C,1.500000*%
G04 #@! TD*
G04 APERTURE END LIST*
D10*
G04 #@! TO.P,R2,1*
G04 #@! TO.N,Net-(C2-Pad1)*
X202565000Y-62230000D03*
D11*
G04 #@! TO.P,R2,2*
G04 #@! TO.N,Net-(C1-Pad1)*
X202565000Y-72390000D03*
G04 #@! TD*
D10*
G04 #@! TO.P,C2,2*
G04 #@! TO.N,GND*
X174705000Y-60325000D03*
G04 #@! TO.P,C2,1*
G04 #@! TO.N,Net-(C2-Pad1)*
X179705000Y-60325000D03*
G04 #@! TD*
G04 #@! TO.P,C1,1*
G04 #@! TO.N,Net-(C1-Pad1)*
X179705000Y-74295000D03*
G04 #@! TO.P,C1,2*
G04 #@! TO.N,GND*
X174705000Y-74295000D03*
G04 #@! TD*
D12*
G04 #@! TO.P,Y1,1*
G04 #@! TO.N,Net-(C1-Pad1)*
X188755000Y-67895000D03*
G04 #@! TO.P,Y1,2*
G04 #@! TO.N,Net-(C2-Pad1)*
X188755000Y-65355000D03*
G04 #@! TD*
D11*
G04 #@! TO.P,U1,8*
G04 #@! TO.N,N/C*
X165735000Y-124460000D03*
G04 #@! TO.P,U1,9*
X165735000Y-121920000D03*
G04 #@! TO.P,U1,10*
G04 #@! TO.N,Net-(U1-Pad10)*
X165735000Y-119380000D03*
G04 #@! TO.P,U1,11*
G04 #@! TO.N,/MOTOR*
X165735000Y-116840000D03*
G04 #@! TO.P,U1,12*
G04 #@! TO.N,Net-(U1-Pad12)*
X165735000Y-114300000D03*
G04 #@! TO.P,U1,13*
G04 #@! TO.N,/ENABLE*
X165735000Y-111760000D03*
G04 #@! TO.P,U1,7*
G04 #@! TO.N,GND*
X158115000Y-124460000D03*
G04 #@! TO.P,U1,14*
G04 #@! TO.N,/+5V*
X165735000Y-109220000D03*
G04 #@! TD*
D13*
G04 #@! TO.P,U8,28*
G04 #@! TO.N,/+5V*
X103825000Y-69925000D03*
G04 #@! TO.P,U8,27*
G04 #@! TO.N,GND*
X103825000Y-72465000D03*
G04 #@! TO.P,U8,14*
G04 #@! TO.N,/SCK*
X152085000Y-59765000D03*
G04 #@! TO.P,U8,13*
G04 #@! TO.N,/MISO*
X152085000Y-62305000D03*
G04 #@! TO.P,U8,12*
G04 #@! TO.N,/MOSI*
X152085000Y-64845000D03*
G04 #@! TO.P,U8,11*
G04 #@! TO.N,/SS*
X152085000Y-67385000D03*
G04 #@! TO.P,U8,8*
G04 #@! TO.N,/EN_1*
X152085000Y-77545000D03*
G04 #@! TO.P,U8,7*
G04 #@! TO.N,/INDEX_1*
X152085000Y-80085000D03*
G04 #@! TO.P,U8,6*
G04 #@! TO.N,/DFLAG_1*
X152085000Y-82625000D03*
G04 #@! TO.P,U8,5*
G04 #@! TO.N,/LFLAG_1*
X152085000Y-85165000D03*
G04 #@! TO.P,U8,4*
G04 #@! TO.N,/MOTOR*
X152085000Y-87705000D03*
G04 #@! TO.P,U8,3*
G04 #@! TO.N,/ELB1*
X152085000Y-90245000D03*
G04 #@! TO.P,U8,2*
G04 #@! TO.N,/ELB2*
X152085000Y-92785000D03*
G04 #@! TO.P,U8,1*
G04 #@! TO.N,/ENABLE*
X152085000Y-95325000D03*
G04 #@! TD*
D14*
G04 #@! TO.P,U3,1*
G04 #@! TO.N,Net-(C1-Pad1)*
X136525000Y-75005000D03*
D11*
G04 #@! TO.P,U3,8*
G04 #@! TO.N,/LFLAG_1*
X128905000Y-59765000D03*
G04 #@! TO.P,U3,2*
G04 #@! TO.N,Net-(C2-Pad1)*
X136525000Y-72465000D03*
G04 #@! TO.P,U3,9*
G04 #@! TO.N,/DFLAG_1*
X128905000Y-62305000D03*
G04 #@! TO.P,U3,3*
G04 #@! TO.N,GND*
X136525000Y-69925000D03*
G04 #@! TO.P,U3,10*
G04 #@! TO.N,/INDEX_1*
X128905000Y-64845000D03*
G04 #@! TO.P,U3,4*
G04 #@! TO.N,/SS*
X136525000Y-67385000D03*
G04 #@! TO.P,U3,11*
G04 #@! TO.N,/B_J1*
X128905000Y-67385000D03*
G04 #@! TO.P,U3,5*
G04 #@! TO.N,/SCK*
X136525000Y-64845000D03*
G04 #@! TO.P,U3,12*
G04 #@! TO.N,/A_J1*
X128905000Y-69925000D03*
G04 #@! TO.P,U3,6*
G04 #@! TO.N,/MISO*
X136525000Y-62305000D03*
G04 #@! TO.P,U3,13*
G04 #@! TO.N,/EN_1*
X128905000Y-72465000D03*
G04 #@! TO.P,U3,7*
G04 #@! TO.N,/MOSI*
X136525000Y-59765000D03*
G04 #@! TO.P,U3,14*
G04 #@! TO.N,/+5V*
X128905000Y-75005000D03*
G04 #@! TD*
D13*
G04 #@! TO.P,U7,1*
G04 #@! TO.N,GND*
X93265000Y-48815000D03*
G04 #@! TO.P,U7,2*
G04 #@! TO.N,/+5V*
X98265000Y-48815000D03*
G04 #@! TO.P,U7,3*
G04 #@! TO.N,/A_J1*
X118265000Y-48815000D03*
G04 #@! TO.P,U7,4*
G04 #@! TO.N,/B_J1*
X123265000Y-48815000D03*
G04 #@! TD*
D11*
G04 #@! TO.P,U2,8*
G04 #@! TO.N,Net-(U2-Pad8)*
X197485000Y-124535000D03*
G04 #@! TO.P,U2,9*
G04 #@! TO.N,Net-(U1-Pad12)*
X197485000Y-121995000D03*
G04 #@! TO.P,U2,10*
G04 #@! TO.N,Net-(U1-Pad10)*
X197485000Y-119455000D03*
G04 #@! TO.P,U2,11*
G04 #@! TO.N,Net-(U2-Pad11)*
X197485000Y-116915000D03*
G04 #@! TO.P,U2,12*
G04 #@! TO.N,/MOTOR*
X197485000Y-114375000D03*
G04 #@! TO.P,U2,13*
G04 #@! TO.N,Net-(U1-Pad12)*
X197485000Y-111835000D03*
G04 #@! TO.P,U2,7*
G04 #@! TO.N,GND*
X189865000Y-124535000D03*
G04 #@! TO.P,U2,14*
G04 #@! TO.N,/+5V*
X197485000Y-109295000D03*
G04 #@! TD*
D13*
G04 #@! TO.P,U4,1*
G04 #@! TO.N,Net-(U2-Pad8)*
X220665000Y-119535000D03*
G04 #@! TO.P,U4,2*
G04 #@! TO.N,Net-(U2-Pad11)*
X220665000Y-114535000D03*
G04 #@! TO.P,U4,3*
G04 #@! TO.N,Net-(U2-Pad8)*
X220665000Y-109535000D03*
G04 #@! TO.P,U4,4*
G04 #@! TO.N,Net-(U2-Pad11)*
X220665000Y-104535000D03*
G04 #@! TO.P,U4,6*
G04 #@! TO.N,GND*
X220665000Y-99535000D03*
G04 #@! TD*
D15*
G04 #@! TO.P,U5,1*
G04 #@! TO.N,N/C*
X172085000Y-85090000D03*
D16*
G04 #@! TO.P,U5,3*
X172085000Y-87630000D03*
G04 #@! TO.P,U5,5*
G04 #@! TO.N,GND*
X172085000Y-90170000D03*
G04 #@! TO.P,U5,7*
G04 #@! TO.N,N/C*
X172085000Y-92710000D03*
G04 #@! TO.P,U5,9*
X172085000Y-95250000D03*
G04 #@! TO.P,U5,11*
X172085000Y-97790000D03*
G04 #@! TO.P,U5,13*
X172085000Y-100330000D03*
G04 #@! TO.P,U5,15*
X172085000Y-102870000D03*
G04 #@! TO.P,U5,2*
X169545000Y-85090000D03*
G04 #@! TO.P,U5,4*
X169545000Y-87630000D03*
G04 #@! TO.P,U5,6*
G04 #@! TO.N,/ELB1*
X169545000Y-90170000D03*
G04 #@! TO.P,U5,8*
G04 #@! TO.N,/ELB2*
X169545000Y-92710000D03*
G04 #@! TO.P,U5,10*
G04 #@! TO.N,N/C*
X169545000Y-95250000D03*
G04 #@! TO.P,U5,12*
X169545000Y-97790000D03*
G04 #@! TO.P,U5,14*
X169545000Y-100330000D03*
G04 #@! TO.P,U5,16*
X169545000Y-102870000D03*
G04 #@! TD*
D17*
G04 #@! TO.N,/+5V*
X193675000Y-97790000D03*
X128905000Y-107950000D03*
G04 #@! TD*
D18*
G04 #@! TO.N,Net-(U2-Pad8)*
X220665000Y-119535000D02*
X220665000Y-120725000D01*
X220665000Y-119535000D02*
X221855000Y-119535000D01*
D19*
X225905000Y-119535000D02*
X220665000Y-119535000D01*
X227965000Y-117475000D02*
X225905000Y-119535000D01*
X227965000Y-112395000D02*
X227965000Y-117475000D01*
X220665000Y-109535000D02*
X225105000Y-109535000D01*
X225105000Y-109535000D02*
X227965000Y-112395000D01*
X209395000Y-119535000D02*
X220665000Y-119535000D01*
X197485000Y-124535000D02*
X204395000Y-124535000D01*
X204395000Y-124535000D02*
X209395000Y-119535000D01*
D20*
G04 #@! TO.N,GND*
X205105000Y-53975000D02*
X179705000Y-53975000D01*
X210185000Y-81915000D02*
X213995000Y-78105000D01*
X213995000Y-78105000D02*
X213995000Y-62865000D01*
X213995000Y-62865000D02*
X205105000Y-53975000D01*
X200025000Y-81915000D02*
X210185000Y-81915000D01*
X102747370Y-72465000D02*
X90805000Y-84407370D01*
D19*
X103825000Y-72465000D02*
X102747370Y-72465000D01*
D20*
X220665000Y-99535000D02*
X213835000Y-99535000D01*
X213835000Y-99535000D02*
X196215000Y-81915000D01*
X196215000Y-81915000D02*
X200025000Y-81915000D01*
X90805000Y-55245000D02*
X90805000Y-84407370D01*
X93265000Y-52785000D02*
X90805000Y-55245000D01*
X93265000Y-48815000D02*
X93265000Y-52785000D01*
D19*
X180975000Y-90170000D02*
X189230000Y-81915000D01*
X172085000Y-90170000D02*
X180975000Y-90170000D01*
D20*
X189230000Y-81915000D02*
X196215000Y-81915000D01*
X231775000Y-104775000D02*
X226535000Y-99535000D01*
X226535000Y-99535000D02*
X220665000Y-99535000D01*
X231775000Y-121920000D02*
X231775000Y-104775000D01*
X223520000Y-130175000D02*
X231775000Y-121920000D01*
X90805000Y-84407370D02*
X90805000Y-100965000D01*
X90805000Y-100965000D02*
X120015000Y-130175000D01*
X151765000Y-124460000D02*
X146050000Y-130175000D01*
X158115000Y-124460000D02*
X151765000Y-124460000D01*
X120015000Y-130175000D02*
X146050000Y-130175000D01*
D19*
X188733630Y-124535000D02*
X188658630Y-124460000D01*
X189865000Y-124535000D02*
X188733630Y-124535000D01*
D20*
X182245000Y-124460000D02*
X176530000Y-130175000D01*
X188658630Y-124460000D02*
X182245000Y-124460000D01*
X146050000Y-130175000D02*
X176530000Y-130175000D01*
X176530000Y-130175000D02*
X223520000Y-130175000D01*
X174705000Y-74295000D02*
X174705000Y-78185000D01*
X178435000Y-81915000D02*
X189230000Y-81915000D01*
X174705000Y-78185000D02*
X178435000Y-81915000D01*
D19*
X170815000Y-60325000D02*
X174705000Y-60325000D01*
X136525000Y-69925000D02*
X161215000Y-69925000D01*
X161215000Y-69925000D02*
X170815000Y-60325000D01*
D20*
X174705000Y-60325000D02*
X174705000Y-57230000D01*
X177960000Y-53975000D02*
X179705000Y-53975000D01*
X174705000Y-57230000D02*
X177960000Y-53975000D01*
D19*
G04 #@! TO.N,/INDEX_1*
X126440000Y-64845000D02*
X128905000Y-64845000D01*
X120015000Y-72390000D02*
X110490000Y-62865000D01*
X120015000Y-79375000D02*
X120015000Y-72390000D01*
X123825000Y-62230000D02*
X126440000Y-64845000D01*
X124460000Y-83820000D02*
X120015000Y-79375000D01*
X139700000Y-83820000D02*
X124460000Y-83820000D01*
X110490000Y-62865000D02*
X110490000Y-48260000D01*
X152085000Y-80085000D02*
X143435000Y-80085000D01*
X110490000Y-48260000D02*
X113665000Y-45085000D01*
X143435000Y-80085000D02*
X139700000Y-83820000D01*
X113665000Y-45085000D02*
X128270000Y-45085000D01*
X128270000Y-45085000D02*
X129540000Y-46355000D01*
X129540000Y-46355000D02*
X129540000Y-46990000D01*
X129540000Y-46990000D02*
X127635000Y-48895000D01*
X127635000Y-48895000D02*
X127635000Y-52070000D01*
X127635000Y-52070000D02*
X123825000Y-55880000D01*
X123825000Y-55880000D02*
X123825000Y-62230000D01*
G04 #@! TO.N,/A_J1*
X118265000Y-48815000D02*
X118265000Y-51915000D01*
X118265000Y-51915000D02*
X117475000Y-52705000D01*
X117475000Y-52705000D02*
X117475000Y-64135000D01*
X123265000Y-69925000D02*
X128905000Y-69925000D01*
X117475000Y-64135000D02*
X123265000Y-69925000D01*
G04 #@! TO.N,/+5V*
X193675000Y-97790000D02*
X193675000Y-97790000D01*
X98265000Y-64365000D02*
X103825000Y-69925000D01*
X98265000Y-48815000D02*
X98265000Y-64365000D01*
X103825000Y-69925000D02*
X106605000Y-69925000D01*
X106605000Y-69925000D02*
X109855000Y-73175000D01*
X109855000Y-73175000D02*
X109855000Y-97155000D01*
X109855000Y-97155000D02*
X120650000Y-107950000D01*
X120650000Y-107950000D02*
X128905000Y-107950000D01*
X130735000Y-75005000D02*
X128905000Y-75005000D01*
X133985000Y-71755000D02*
X130735000Y-75005000D01*
X133985000Y-53975000D02*
X133985000Y-71755000D01*
X128905000Y-107950000D02*
X128905000Y-107950000D01*
X197410000Y-109220000D02*
X197485000Y-109295000D01*
X165735000Y-109220000D02*
X197410000Y-109220000D01*
X193675000Y-97790000D02*
X198755000Y-97790000D01*
X198755000Y-97790000D02*
X205105000Y-104140000D01*
X205105000Y-104140000D02*
X205105000Y-107315000D01*
X203125000Y-109295000D02*
X197485000Y-109295000D01*
X205105000Y-107315000D02*
X203125000Y-109295000D01*
X146050000Y-41910000D02*
X140970000Y-46990000D01*
X146050000Y-38735000D02*
X146050000Y-41910000D01*
X140970000Y-46990000D02*
X133985000Y-53975000D01*
X141605000Y-46355000D02*
X140970000Y-46990000D01*
X98265000Y-48815000D02*
X98265000Y-41435000D01*
X98265000Y-41435000D02*
X102235000Y-37465000D01*
X102235000Y-37465000D02*
X144780000Y-37465000D01*
X144780000Y-37465000D02*
X146050000Y-38735000D01*
G04 #@! TO.N,/B_J1*
X125805000Y-67385000D02*
X128905000Y-67385000D01*
X121285000Y-62865000D02*
X125805000Y-67385000D01*
X121285000Y-53975000D02*
X121285000Y-62865000D01*
X122503001Y-52756999D02*
X121285000Y-53975000D01*
X123265000Y-48815000D02*
X122503001Y-49576999D01*
X122503001Y-49576999D02*
X122503001Y-52756999D01*
G04 #@! TO.N,/SCK*
X137656370Y-64845000D02*
X136525000Y-64845000D01*
X149225000Y-59765000D02*
X144145000Y-64845000D01*
X152085000Y-59765000D02*
X149225000Y-59765000D01*
X144145000Y-64845000D02*
X137656370Y-64845000D01*
G04 #@! TO.N,/MISO*
X152085000Y-62305000D02*
X154865000Y-62305000D01*
X154865000Y-62305000D02*
X158115000Y-59055000D01*
X158115000Y-59055000D02*
X158115000Y-56515000D01*
X158115000Y-56515000D02*
X155575000Y-53975000D01*
X155575000Y-53975000D02*
X149225000Y-53975000D01*
X140895000Y-62305000D02*
X136525000Y-62305000D01*
X149225000Y-53975000D02*
X140895000Y-62305000D01*
G04 #@! TO.N,/MOSI*
X136525000Y-55245000D02*
X142875000Y-48895000D01*
X157405000Y-64845000D02*
X152085000Y-64845000D01*
X142875000Y-48895000D02*
X161925000Y-48895000D01*
X136525000Y-59765000D02*
X136525000Y-55245000D01*
X161925000Y-48895000D02*
X163195000Y-50165000D01*
X163195000Y-50165000D02*
X163195000Y-59055000D01*
X163195000Y-59055000D02*
X157405000Y-64845000D01*
G04 #@! TO.N,/SS*
X151007370Y-67385000D02*
X136525000Y-67385000D01*
X152085000Y-67385000D02*
X151007370Y-67385000D01*
G04 #@! TO.N,/ENABLE*
X152085000Y-95325000D02*
X149785000Y-95325000D01*
X149785000Y-95325000D02*
X147320000Y-97790000D01*
X147320000Y-97790000D02*
X147320000Y-106680000D01*
X152400000Y-111760000D02*
X165735000Y-111760000D01*
X147320000Y-106680000D02*
X152400000Y-111760000D01*
G04 #@! TO.N,/ELB2*
X169470000Y-92785000D02*
X169545000Y-92710000D01*
X152085000Y-92785000D02*
X169470000Y-92785000D01*
G04 #@! TO.N,/ELB1*
X169470000Y-90245000D02*
X169545000Y-90170000D01*
X152085000Y-90245000D02*
X169470000Y-90245000D01*
G04 #@! TO.N,/EN_1*
X140895000Y-77545000D02*
X152085000Y-77545000D01*
X128905000Y-72465000D02*
X124385000Y-72465000D01*
X124385000Y-72465000D02*
X122555000Y-74295000D01*
X122555000Y-74295000D02*
X122555000Y-76835000D01*
X122555000Y-76835000D02*
X125095000Y-79375000D01*
X125095000Y-79375000D02*
X139065000Y-79375000D01*
X139065000Y-79375000D02*
X140895000Y-77545000D01*
G04 #@! TO.N,/MOTOR*
X151007370Y-87705000D02*
X150932370Y-87630000D01*
X152085000Y-87705000D02*
X151007370Y-87705000D01*
X150932370Y-87630000D02*
X149225000Y-87630000D01*
X149225000Y-87630000D02*
X142875000Y-93980000D01*
X142875000Y-93980000D02*
X142875000Y-111760000D01*
X142875000Y-111760000D02*
X147955000Y-116840000D01*
X147955000Y-116840000D02*
X165735000Y-116840000D01*
X179630000Y-114375000D02*
X197485000Y-114375000D01*
X165735000Y-116840000D02*
X177165000Y-116840000D01*
X177165000Y-116840000D02*
X179630000Y-114375000D01*
G04 #@! TO.N,/DFLAG_1*
X127075000Y-62305000D02*
X128905000Y-62305000D01*
X126365000Y-61595000D02*
X127075000Y-62305000D01*
X104140000Y-59690000D02*
X104140000Y-45085000D01*
X104140000Y-45085000D02*
X106680000Y-42545000D01*
X145975000Y-82625000D02*
X140335000Y-88265000D01*
X126365000Y-57785000D02*
X126365000Y-61595000D01*
X152085000Y-82625000D02*
X145975000Y-82625000D01*
X140335000Y-88265000D02*
X124460000Y-88265000D01*
X130175000Y-53975000D02*
X126365000Y-57785000D01*
X124460000Y-88265000D02*
X116840000Y-80645000D01*
X116840000Y-80645000D02*
X116840000Y-72390000D01*
X116840000Y-72390000D02*
X104140000Y-59690000D01*
X106680000Y-42545000D02*
X130175000Y-42545000D01*
X130175000Y-42545000D02*
X132715000Y-45085000D01*
X132715000Y-46990000D02*
X130175000Y-49530000D01*
X132715000Y-45085000D02*
X132715000Y-46990000D01*
X130175000Y-49530000D02*
X130175000Y-53975000D01*
G04 #@! TO.N,/LFLAG_1*
X147245000Y-85165000D02*
X152085000Y-85165000D01*
X141605000Y-90805000D02*
X147245000Y-85165000D01*
X113665000Y-83820000D02*
X120650000Y-90805000D01*
X120650000Y-90805000D02*
X141605000Y-90805000D01*
X101600000Y-42545000D02*
X101600000Y-60960000D01*
X137160000Y-40005000D02*
X104140000Y-40005000D01*
X113665000Y-73025000D02*
X113665000Y-83820000D01*
X104140000Y-40005000D02*
X101600000Y-42545000D01*
X101600000Y-60960000D02*
X113665000Y-73025000D01*
X132080000Y-52070000D02*
X139065000Y-45085000D01*
X139065000Y-45085000D02*
X139065000Y-41910000D01*
X139065000Y-41910000D02*
X137160000Y-40005000D01*
X129704999Y-58965001D02*
X130264999Y-58965001D01*
X128905000Y-59765000D02*
X129704999Y-58965001D01*
X132080000Y-57150000D02*
X132080000Y-52070000D01*
X130264999Y-58965001D02*
X132080000Y-57150000D01*
G04 #@! TO.N,Net-(C2-Pad1)*
X183085000Y-60325000D02*
X179705000Y-60325000D01*
X179705000Y-60325000D02*
X179705000Y-62865000D01*
X179705000Y-62865000D02*
X177165000Y-65405000D01*
X177165000Y-65405000D02*
X170815000Y-65405000D01*
X163755000Y-72465000D02*
X141925000Y-72465000D01*
X170815000Y-65405000D02*
X163755000Y-72465000D01*
X141925000Y-72465000D02*
X136525000Y-72465000D01*
X183725000Y-60325000D02*
X183085000Y-60325000D01*
X201433630Y-62230000D02*
X185630000Y-62230000D01*
X202565000Y-62230000D02*
X201433630Y-62230000D01*
X188755000Y-65355000D02*
X185630000Y-62230000D01*
X185630000Y-62230000D02*
X183725000Y-60325000D01*
G04 #@! TO.N,Net-(C1-Pad1)*
X179705000Y-74295000D02*
X179705000Y-71755000D01*
X179705000Y-71755000D02*
X177165000Y-69215000D01*
X177165000Y-69215000D02*
X173355000Y-69215000D01*
X167565000Y-75005000D02*
X141925000Y-75005000D01*
X173355000Y-69215000D02*
X167565000Y-75005000D01*
X141925000Y-75005000D02*
X136525000Y-75005000D01*
X179705000Y-74295000D02*
X182355000Y-74295000D01*
X185420000Y-71230000D02*
X188755000Y-67895000D01*
X184895000Y-71755000D02*
X188755000Y-67895000D01*
X193250000Y-72390000D02*
X184260000Y-72390000D01*
X202565000Y-72390000D02*
X193250000Y-72390000D01*
X182355000Y-74295000D02*
X184260000Y-72390000D01*
X184260000Y-72390000D02*
X184895000Y-71755000D01*
G04 #@! TO.N,Net-(U1-Pad12)*
X165735000Y-114300000D02*
X175260000Y-114300000D01*
X177725000Y-111835000D02*
X197485000Y-111835000D01*
X175260000Y-114300000D02*
X177725000Y-111835000D01*
G04 #@! TO.N,Net-(U2-Pad11)*
X216135000Y-114535000D02*
X220665000Y-114535000D01*
X213995000Y-112395000D02*
X216135000Y-114535000D01*
X213995000Y-108585000D02*
X213995000Y-112395000D01*
X220665000Y-104535000D02*
X218045000Y-104535000D01*
X218045000Y-104535000D02*
X213995000Y-108585000D01*
X198284999Y-116115001D02*
X205194999Y-116115001D01*
X197485000Y-116915000D02*
X198284999Y-116115001D01*
X205194999Y-116115001D02*
X205284998Y-116205000D01*
X210185000Y-116205000D02*
X213995000Y-112395000D01*
X205284998Y-116205000D02*
X210185000Y-116205000D01*
G04 #@! TO.N,Net-(U1-Pad10)*
X197410000Y-119380000D02*
X197485000Y-119455000D01*
X165735000Y-119380000D02*
X197410000Y-119380000D01*
G04 #@! TD*
M02*
