G04 #@! TF.GenerationSoftware,KiCad,Pcbnew,(5.0.0)*
G04 #@! TF.CreationDate,2018-12-11T19:12:22-02:00*
G04 #@! TF.ProjectId,trab,747261622E6B696361645F7063620000,rev?*
G04 #@! TF.SameCoordinates,Original*
G04 #@! TF.FileFunction,Copper,L1,Top,Signal*
G04 #@! TF.FilePolarity,Positive*
%FSLAX46Y46*%
G04 Gerber Fmt 4.6, Leading zero omitted, Abs format (unit mm)*
G04 Created by KiCad (PCBNEW (5.0.0)) date 12/11/18 19:12:22*
%MOMM*%
%LPD*%
G01*
G04 APERTURE LIST*
G04 #@! TA.AperFunction,ComponentPad*
%ADD10C,1.600000*%
G04 #@! TD*
G04 #@! TA.AperFunction,ComponentPad*
%ADD11O,1.600000X1.600000*%
G04 #@! TD*
G04 #@! TA.AperFunction,ComponentPad*
%ADD12C,1.000000*%
G04 #@! TD*
G04 #@! TA.AperFunction,ComponentPad*
%ADD13C,1.524000*%
G04 #@! TD*
G04 #@! TA.AperFunction,ComponentPad*
%ADD14R,1.600000X1.600000*%
G04 #@! TD*
G04 #@! TA.AperFunction,ComponentPad*
%ADD15R,1.310000X1.310000*%
G04 #@! TD*
G04 #@! TA.AperFunction,ComponentPad*
%ADD16C,1.310000*%
G04 #@! TD*
G04 #@! TA.AperFunction,ViaPad*
%ADD17C,4.000000*%
G04 #@! TD*
G04 APERTURE END LIST*
D10*
G04 #@! TO.P,R2,1*
G04 #@! TO.N,Net-(C2-Pad1)*
X202565000Y-62230000D03*
D11*
G04 #@! TO.P,R2,2*
G04 #@! TO.N,Net-(C1-Pad1)*
X202565000Y-72390000D03*
G04 #@! TD*
D10*
G04 #@! TO.P,C2,2*
G04 #@! TO.N,GND*
X174705000Y-60325000D03*
G04 #@! TO.P,C2,1*
G04 #@! TO.N,Net-(C2-Pad1)*
X179705000Y-60325000D03*
G04 #@! TD*
G04 #@! TO.P,C1,1*
G04 #@! TO.N,Net-(C1-Pad1)*
X179705000Y-74295000D03*
G04 #@! TO.P,C1,2*
G04 #@! TO.N,GND*
X174705000Y-74295000D03*
G04 #@! TD*
D12*
G04 #@! TO.P,Y1,1*
G04 #@! TO.N,Net-(C1-Pad1)*
X188755000Y-67895000D03*
G04 #@! TO.P,Y1,2*
G04 #@! TO.N,Net-(C2-Pad1)*
X188755000Y-65355000D03*
G04 #@! TD*
D11*
G04 #@! TO.P,U1,8*
G04 #@! TO.N,N/C*
X165735000Y-124460000D03*
G04 #@! TO.P,U1,9*
X165735000Y-121920000D03*
G04 #@! TO.P,U1,10*
G04 #@! TO.N,Net-(U1-Pad10)*
X165735000Y-119380000D03*
G04 #@! TO.P,U1,11*
G04 #@! TO.N,/MOTOR*
X165735000Y-116840000D03*
G04 #@! TO.P,U1,12*
G04 #@! TO.N,Net-(U1-Pad12)*
X165735000Y-114300000D03*
G04 #@! TO.P,U1,13*
G04 #@! TO.N,/ENABLE*
X165735000Y-111760000D03*
G04 #@! TO.P,U1,7*
G04 #@! TO.N,GND*
X158115000Y-124460000D03*
G04 #@! TO.P,U1,14*
G04 #@! TO.N,/+5V*
X165735000Y-109220000D03*
G04 #@! TD*
D13*
G04 #@! TO.P,U8,28*
G04 #@! TO.N,/+5V*
X103825000Y-69925000D03*
G04 #@! TO.P,U8,27*
G04 #@! TO.N,GND*
X103825000Y-72465000D03*
G04 #@! TO.P,U8,14*
G04 #@! TO.N,/SCK*
X152085000Y-59765000D03*
G04 #@! TO.P,U8,13*
G04 #@! TO.N,/MISO*
X152085000Y-62305000D03*
G04 #@! TO.P,U8,12*
G04 #@! TO.N,/MOSI*
X152085000Y-64845000D03*
G04 #@! TO.P,U8,11*
G04 #@! TO.N,/SS*
X152085000Y-67385000D03*
G04 #@! TO.P,U8,8*
G04 #@! TO.N,/EN_1*
X152085000Y-77545000D03*
G04 #@! TO.P,U8,7*
G04 #@! TO.N,/INDEX_1*
X152085000Y-80085000D03*
G04 #@! TO.P,U8,6*
G04 #@! TO.N,/DFLAG_1*
X152085000Y-82625000D03*
G04 #@! TO.P,U8,5*
G04 #@! TO.N,/LFLAG_1*
X152085000Y-85165000D03*
G04 #@! TO.P,U8,4*
G04 #@! TO.N,/MOTOR*
X152085000Y-87705000D03*
G04 #@! TO.P,U8,3*
G04 #@! TO.N,/ELB1*
X152085000Y-90245000D03*
G04 #@! TO.P,U8,2*
G04 #@! TO.N,/ELB2*
X152085000Y-92785000D03*
G04 #@! TO.P,U8,1*
G04 #@! TO.N,/ENABLE*
X152085000Y-95325000D03*
G04 #@! TD*
D14*
G04 #@! TO.P,U3,1*
G04 #@! TO.N,Net-(C1-Pad1)*
X136525000Y-75005000D03*
D11*
G04 #@! TO.P,U3,8*
G04 #@! TO.N,/LFLAG_1*
X128905000Y-59765000D03*
G04 #@! TO.P,U3,2*
G04 #@! TO.N,Net-(C2-Pad1)*
X136525000Y-72465000D03*
G04 #@! TO.P,U3,9*
G04 #@! TO.N,/DFLAG_1*
X128905000Y-62305000D03*
G04 #@! TO.P,U3,3*
G04 #@! TO.N,GND*
X136525000Y-69925000D03*
G04 #@! TO.P,U3,10*
G04 #@! TO.N,/INDEX_1*
X128905000Y-64845000D03*
G04 #@! TO.P,U3,4*
G04 #@! TO.N,/SS*
X136525000Y-67385000D03*
G04 #@! TO.P,U3,11*
G04 #@! TO.N,/B_J1*
X128905000Y-67385000D03*
G04 #@! TO.P,U3,5*
G04 #@! TO.N,/SCK*
X136525000Y-64845000D03*
G04 #@! TO.P,U3,12*
G04 #@! TO.N,/A_J1*
X128905000Y-69925000D03*
G04 #@! TO.P,U3,6*
G04 #@! TO.N,/MISO*
X136525000Y-62305000D03*
G04 #@! TO.P,U3,13*
G04 #@! TO.N,/EN_1*
X128905000Y-72465000D03*
G04 #@! TO.P,U3,7*
G04 #@! TO.N,/MOSI*
X136525000Y-59765000D03*
G04 #@! TO.P,U3,14*
G04 #@! TO.N,/+5V*
X128905000Y-75005000D03*
G04 #@! TD*
D13*
G04 #@! TO.P,U7,1*
G04 #@! TO.N,GND*
X93265000Y-48815000D03*
G04 #@! TO.P,U7,2*
G04 #@! TO.N,/+5V*
X98265000Y-48815000D03*
G04 #@! TO.P,U7,3*
G04 #@! TO.N,/A_J1*
X118265000Y-48815000D03*
G04 #@! TO.P,U7,4*
G04 #@! TO.N,/B_J1*
X123265000Y-48815000D03*
G04 #@! TD*
D11*
G04 #@! TO.P,U2,8*
G04 #@! TO.N,Net-(U2-Pad8)*
X197485000Y-124535000D03*
G04 #@! TO.P,U2,9*
G04 #@! TO.N,Net-(U1-Pad12)*
X197485000Y-121995000D03*
G04 #@! TO.P,U2,10*
G04 #@! TO.N,Net-(U1-Pad10)*
X197485000Y-119455000D03*
G04 #@! TO.P,U2,11*
G04 #@! TO.N,Net-(U2-Pad11)*
X197485000Y-116915000D03*
G04 #@! TO.P,U2,12*
G04 #@! TO.N,/MOTOR*
X197485000Y-114375000D03*
G04 #@! TO.P,U2,13*
G04 #@! TO.N,Net-(U1-Pad12)*
X197485000Y-111835000D03*
G04 #@! TO.P,U2,7*
G04 #@! TO.N,GND*
X189865000Y-124535000D03*
G04 #@! TO.P,U2,14*
G04 #@! TO.N,/+5V*
X197485000Y-109295000D03*
G04 #@! TD*
D13*
G04 #@! TO.P,U4,1*
G04 #@! TO.N,Net-(U2-Pad8)*
X220665000Y-119535000D03*
G04 #@! TO.P,U4,2*
G04 #@! TO.N,Net-(U2-Pad11)*
X220665000Y-114535000D03*
G04 #@! TO.P,U4,3*
G04 #@! TO.N,Net-(U2-Pad8)*
X220665000Y-109535000D03*
G04 #@! TO.P,U4,4*
G04 #@! TO.N,Net-(U2-Pad11)*
X220665000Y-104535000D03*
G04 #@! TO.P,U4,6*
G04 #@! TO.N,GND*
X220665000Y-99535000D03*
G04 #@! TD*
D15*
G04 #@! TO.P,U5,1*
G04 #@! TO.N,N/C*
X172085000Y-85090000D03*
D16*
G04 #@! TO.P,U5,3*
X172085000Y-87630000D03*
G04 #@! TO.P,U5,5*
G04 #@! TO.N,GND*
X172085000Y-90170000D03*
G04 #@! TO.P,U5,7*
G04 #@! TO.N,N/C*
X172085000Y-92710000D03*
G04 #@! TO.P,U5,9*
X172085000Y-95250000D03*
G04 #@! TO.P,U5,11*
X172085000Y-97790000D03*
G04 #@! TO.P,U5,13*
X172085000Y-100330000D03*
G04 #@! TO.P,U5,15*
X172085000Y-102870000D03*
G04 #@! TO.P,U5,2*
X169545000Y-85090000D03*
G04 #@! TO.P,U5,4*
X169545000Y-87630000D03*
G04 #@! TO.P,U5,6*
G04 #@! TO.N,/ELB1*
X169545000Y-90170000D03*
G04 #@! TO.P,U5,8*
G04 #@! TO.N,/ELB2*
X169545000Y-92710000D03*
G04 #@! TO.P,U5,10*
G04 #@! TO.N,N/C*
X169545000Y-95250000D03*
G04 #@! TO.P,U5,12*
X169545000Y-97790000D03*
G04 #@! TO.P,U5,14*
X169545000Y-100330000D03*
G04 #@! TO.P,U5,16*
X169545000Y-102870000D03*
G04 #@! TD*
D17*
G04 #@! TO.N,/+5V*
X193675000Y-97790000D03*
X128905000Y-107950000D03*
G04 #@! TD*
M02*
